<mxfile host="app.diagrams.net" modified="2023-07-30T17:32:10.874Z" agent="Mozilla/5.0 (Windows NT 10.0; Win64; x64) AppleWebKit/537.36 (KHTML, like Gecko) Chrome/115.0.0.0 Safari/537.36" version="21.6.6" etag="7O1pnSNIT1y7Q2z0BgZ8" type="github">
  <diagram name="Page-1" id="uv4iH5jqvB674LRIHle0">
    <mxGraphModel>
      <root>
        <mxCell id="0" />
        <mxCell id="1" parent="0" />
      </root>
    </mxGraphModel>
  </diagram>
</mxfile>
